<?xml version="1.0" encoding="utf-8"?>
<!-- Generator: Adobe Illustrator 16.0.0, SVG Export Plug-In . SVG Version: 6.00 Build 0)  -->
<!DOCTYPE svg PUBLIC "-//W3C//DTD SVG 1.1//EN" "http://www.w3.org/Graphics/SVG/1.1/DTD/svg11.dtd">
<svg version="1.1" id="Layer_1" xmlns="http://www.w3.org/2000/svg" xmlns:xlink="http://www.w3.org/1999/xlink" x="0px" y="0px"
	 width="120px" height="120px" viewBox="0 0 120 120" enable-background="new 0 0 120 120" xml:space="preserve">
<g>
	<circle fill="#26292B" cx="60" cy="60" r="57.652"/>
	<g>
		<path fill="#FAFBFB" d="M100.957,33.521H49.538c-1.45,0-2.603,1.152-2.603,2.592c0,1.439,1.153,2.591,2.603,2.591h47.524
			l-10.49,25.329H42.815l-9.69-28.75c-0.043-0.144-0.199-0.189-0.287-0.31c-0.044-0.133,0-0.276-0.066-0.388
			c-0.189-0.244-4.485-6.002-13.479-6.922c-1.384-0.132-2.691,0.886-2.835,2.315c-0.144,1.417,0.886,2.702,2.314,2.846
			c6.069,0.632,9.048,3.91,9.591,4.585l10.145,30.044c0.354,1.064,1.34,1.772,2.459,1.772h47.366c0.611,0,1.164-0.276,1.63-0.686
			c0.143-0.132,0.222-0.266,0.333-0.409c0.133-0.179,0.32-0.3,0.408-0.532l12.659-30.511c0.32-0.797,0.244-1.717-0.233-2.436
			C102.643,33.931,101.813,33.521,100.957,33.521z"/>
		<path fill="#FAFBFB" d="M50.734,72.682c-5.448,0-9.846,4.406-9.846,9.846c0,5.413,4.397,9.822,9.846,9.822
			c5.416,0,9.812-4.396,9.812-9.822C60.535,77.077,56.14,72.682,50.734,72.682z M50.734,87.145c-2.569,0-4.674-2.082-4.674-4.63
			c0-2.569,2.104-4.661,4.674-4.661c2.548,0,4.63,2.083,4.63,4.661C55.364,85.084,53.282,87.145,50.734,87.145z"/>
		<path fill="#FAFBFB" d="M81.081,72.682c-5.438,0-9.849,4.406-9.849,9.846c0,5.413,4.398,9.822,9.849,9.822
			c5.414,0,9.822-4.396,9.822-9.822C90.903,77.077,86.505,72.682,81.081,72.682z M81.081,87.145c-2.593,0-4.651-2.082-4.651-4.63
			c0-2.569,2.059-4.661,4.651-4.661c2.545,0,4.64,2.083,4.64,4.661C85.721,85.084,83.638,87.145,81.081,87.145z"/>
	</g>
</g>
</svg>
