<svg> <symbol id="home" viewBox="0 0 8 8"> <path d="M4 0l-4 3h1v4h2v-2h2v2h2v-4.031l1 .031-4-3z"></path> </symbol> <symbol id="people" viewBox="0 0 8 8"> <path d="M5.5 0c-.51 0-.949.355-1.219.875.45.54.719 1.275.719 2.125 0 .29-.034.574-.094.844.18.11.374.156.594.156.83 0 1.5-.9 1.5-2s-.67-2-1.5-2zm-3 1c-.828 0-1.5.895-1.5 2s.672 2 1.5 2 1.5-.895 1.5-2-.672-2-1.5-2zm4.75 3.156c-.43.51-1.018.824-1.688.844.27.38.438.844.438 1.344v.656h2v-1.656c0-.52-.31-.968-.75-1.188zm-6.5 1c-.44.22-.75.668-.75 1.188v1.656h5v-1.656c0-.52-.31-.968-.75-1.188-.44.53-1.06.844-1.75.844s-1.31-.314-1.75-.844z"></path> </symbol> <symbol id="briefcase" viewBox="0 0 8 8"> <path d="M3 0c-.554 0-1 .458-1 1v1h-1.906c-.06 0-.094.034-.094.094v2.406c0 .28.22.5.5.5h7c.28 0 .5-.22.5-.5v-2.406c0-.06-.034-.094-.094-.094h-1.906v-1c0-.542-.446-1-1-1h-2zm0 1h2v1h-2v-1zm-3 4.906v2c0 .06.034.094.094.094h7.813c.06 0 .094-.034.094-.094v-2c-.16.05-.32.094-.5.094h-7c-.18 0-.34-.044-.5-.094z"></path> </symbol> <symbol id="chat" viewBox="0 0 8 8"> <path d="M0 0v5l1-1h1v-3h3v-1h-5zm3 2v4h4l1 1v-5h-5z"></path> </symbol> <symbol id="person" viewBox="0 0 8 8"> <path d="M4 0c-1.105 0-2 1.119-2 2.5s.895 2.5 2 2.5 2-1.119 2-2.5-.895-2.5-2-2.5zm-2.094 5c-1.07.04-1.906.92-1.906 2v1h8v-1c0-1.08-.836-1.96-1.906-2-.54.61-1.284 1-2.094 1-.81 0-1.554-.39-2.094-1z"></path> </symbol> <symbol id="envelope-closed" viewBox="0 0 8 8"> <path d="M0 0v1l4 2 4-2v-1h-8zm0 2v4h8v-4l-4 2-4-2z" transform="translate(0 1)"></path> </symbol> <symbol id="pencil" viewBox="0 0 8 8"> <path d="M6 0l-1 1 2 2 1-1-2-2zm-2 2l-4 4v2h2l4-4-2-2z"></path> </symbol> <symbol id="trash" viewBox="0 0 8 8"> <path d="M3 0c-.55 0-1 .45-1 1h-1c-.55 0-1 .45-1 1h7c0-.55-.45-1-1-1h-1c0-.55-.45-1-1-1h-1zm-2 3v4.813c0 .11.077.188.188.188h4.625c.11 0 .188-.077.188-.188v-4.813h-1v3.5c0 .28-.22.5-.5.5s-.5-.22-.5-.5v-3.5h-1v3.5c0 .28-.22.5-.5.5s-.5-.22-.5-.5v-3.5h-1z"></path> </symbol> <symbol id="linkedin" viewBox="0 0 8 8"> <g> <rect x="0.155" y="2.742" width="1.685" height="4.971"/> <path d="M2.691,2.742v4.971h1.685c0.02-0.723,0-2.293,0-3.035c0-0.741,1.801-1.35,1.844,0.223c0.046,1.572,0,2.812,0,2.812h1.685 c0.046-0.99,0-3.216,0-3.216C7.926,3.485,6.402,1.428,4.33,3.518c0-0.514,0-0.776,0-0.776H2.691z"/> <circle cx="0.997" cy="1.211" r="0.923"/> </g> </symbol> <symbol id="facebook" viewBox="0 0 8 8"> <path d="M4.665,1.881c0-0.358,0.038-0.551,0.59-0.551h0.736V0H4.812C3.396,0,2.898,0.667,2.898,1.787v0.865H2.016v1.333h0.883V7.97 h1.764V3.985h1.181L6,2.652H4.662L4.665,1.881z"/> </symbol> <symbol id="twitter" viewBox="0 0 8 8"> <path d="M2.525,7.229c2.999,0,4.641-2.484,4.641-4.641c0-0.07,0-0.14-0.006-0.209c0.32-0.232,0.596-0.518,0.814-0.846 c-0.298,0.132-0.613,0.22-0.938,0.257c0.342-0.204,0.597-0.524,0.719-0.902C7.434,1.08,7.083,1.213,6.721,1.285 c-0.619-0.656-1.652-0.688-2.31-0.07C3.988,1.613,3.808,2.206,3.939,2.773C2.628,2.707,1.407,2.087,0.578,1.069 C0.145,1.814,0.366,2.768,1.083,3.245C0.824,3.238,0.57,3.167,0.343,3.041c0,0.007,0,0.014,0,0.021c0,0.776,0.547,1.446,1.308,1.599 c-0.24,0.064-0.492,0.074-0.736,0.028C1.128,5.354,1.74,5.809,2.438,5.823C1.861,6.277,1.147,6.521,0.413,6.521 c-0.129,0-0.259-0.009-0.388-0.025C0.771,6.978,1.639,7.229,2.525,7.229"/> </symbol> <symbol id="warning" viewBox="0 0 8 8"> <path d="M3.094 0c-.06 0-.105.044-.125.094l-2.938 6.813c-.02.05-.031.128-.031.188v.813c0 .06.034.094.094.094h6.813c.06 0 .094-.034.094-.094v-.813c0-.06-.011-.128-.031-.188l-2.938-6.813c-.02-.05-.065-.094-.125-.094h-.813zm-.094 3h1v2h-1v-2zm0 3h1v1h-1v-1z"></path> </symbol> <symbol id="info" viewBox="0 0 8 8"> <path d="M3 0c-.552 0-1 .448-1 1s.448 1 1 1 1-.448 1-1-.448-1-1-1zm-1.5 2.5c-.83 0-1.5.67-1.5 1.5h1c0-.28.22-.5.5-.5s.5.22.5.5-1 1.64-1 2.5c0 .86.67 1.5 1.5 1.5s1.5-.67 1.5-1.5h-1c0 .28-.22.5-.5.5s-.5-.22-.5-.5c0-.36 1-1.84 1-2.5 0-.81-.67-1.5-1.5-1.5z" transform="translate(2)"></path> </symbol> <symbol id="x1" viewBox="0 0 8 8"> <path d="M4.656,4.001l3.156-3.157c0.18-0.181,0.18-0.475,0-0.655c-0.181-0.182-0.475-0.182-0.655,0L4,3.346L0.844,0.189 c-0.18-0.182-0.475-0.182-0.655,0c-0.181,0.18-0.181,0.474,0,0.655l3.158,3.157L0.188,7.157c-0.181,0.181-0.181,0.475,0,0.655 c0.09,0.092,0.209,0.135,0.327,0.135c0.119,0,0.237-0.043,0.328-0.135L4,4.656l3.157,3.156c0.09,0.092,0.208,0.135,0.326,0.135 s0.238-0.043,0.329-0.135c0.18-0.181,0.18-0.475,0-0.655L4.656,4.001z"/> </symbol> <symbol id="cart1" viewBox="0 0 8 8"> <g> <path d="M7.699,1.61H3.056c-0.131,0-0.235,0.104-0.235,0.234c0,0.13,0.104,0.234,0.235,0.234h4.291L6.4,4.365H2.449L1.574,1.769 C1.57,1.756,1.556,1.752,1.548,1.741c-0.004-0.012,0-0.025-0.006-0.035C1.525,1.684,1.137,1.164,0.325,1.081 C0.2,1.069,0.082,1.161,0.069,1.29C0.056,1.418,0.149,1.534,0.278,1.547C0.826,1.604,1.095,1.9,1.144,1.961l0.916,2.713 c0.032,0.096,0.121,0.16,0.222,0.16h4.277c0.055,0,0.105-0.025,0.147-0.062c0.013-0.012,0.02-0.024,0.03-0.037 c0.012-0.016,0.029-0.027,0.037-0.048l1.143-2.755c0.029-0.072,0.022-0.155-0.021-0.22C7.851,1.647,7.776,1.61,7.699,1.61z"/> <path d="M3.164,5.146c-0.492,0-0.889,0.398-0.889,0.889c0,0.489,0.397,0.887,0.889,0.887c0.489,0,0.886-0.397,0.886-0.887 C4.049,5.543,3.652,5.146,3.164,5.146z M3.164,6.452c-0.232,0-0.422-0.188-0.422-0.418c0-0.232,0.19-0.421,0.422-0.421 c0.23,0,0.418,0.188,0.418,0.421C3.582,6.266,3.394,6.452,3.164,6.452z"/> <path d="M5.904,5.146c-0.491,0-0.889,0.398-0.889,0.889c0,0.489,0.397,0.887,0.889,0.887c0.489,0,0.887-0.397,0.887-0.887 C6.791,5.543,6.394,5.146,5.904,5.146z M5.904,6.452c-0.234,0-0.42-0.188-0.42-0.418c0-0.232,0.186-0.421,0.42-0.421 c0.23,0,0.419,0.188,0.419,0.421C6.323,6.266,6.135,6.452,5.904,6.452z"/> </g> </symbol> </svg>
